<?xml version="1.0" encoding="iso-8859-1"?>
<!-- Generator: Adobe Illustrator 19.0.0, SVG Export Plug-In . SVG Version: 6.00 Build 0)  -->
<svg version="1.1" id="Layer_1" xmlns="http://www.w3.org/2000/svg" xmlns:xlink="http://www.w3.org/1999/xlink" x="0px" y="0px"
	 viewBox="0 0 511.995 511.995" style="enable-background:new 0 0 511.995 511.995;" xml:space="preserve">
<g>
	<g>
		<circle cx="159.993" cy="69.727" r="39.024"/>
	</g>
</g>
<g>
	<g>
		<path d="M170.766,359.582l-16.704-62.36l0.775,0.063l12.005-146.045c1.292-15.721-10.404-29.513-26.125-30.805l-26.877-2.21
			c-17.079-1.403-32.915,5.532-43.511,17.4l16.328-0.53l-72.321,18.242c-11.668,2.942-17.677,15.885-12.412,26.694
			c17.497,35.926,19.544,40.129,34.821,71.496c2.578,5.293,7.297,8.838,12.605,10.121l-0.943,24.153l12.606,72.204L31.845,464.381
			c-3.323,12.123,3.809,24.644,15.931,27.967c12.126,3.323,24.645-3.814,27.967-15.931l30.447-111.05
			c0.845-3.084,1.031-6.309,0.547-9.469l-9.719-63.367l8.861,0.728l19.706,73.571l-14.84,101.986
			c-1.992,13.691,8.608,26.04,22.55,26.04c11.118-0.001,20.845-8.159,22.493-19.485l15.515-106.623
			C171.749,365.688,171.566,362.569,170.766,359.582z M55.054,192.215l-0.723,8.797l-3.308-6.791l-4.779-9.812l49.689-12.534
			L55.054,192.215z"/>
	</g>
</g>
<g>
	<g>
		<polygon points="308.764,58.598 307.747,64.281 312.737,64.281 313.8,58.598 		"/>
	</g>
</g>
<g>
	<g>
		<path d="M291.807,17.137c-38.467,0-69.65,22.454-69.65,50.154c0.001,14.897,9.025,28.268,23.342,37.454l-9.655,19.28
			c-0.986,1.967-0.566,4.348,1.031,5.859c1.597,1.512,3.997,1.801,5.907,0.709l27.37-15.632c6.818,1.605,14.09,2.484,21.654,2.484
			c38.467,0,69.651-22.455,69.651-50.154C361.457,39.591,330.274,17.137,291.807,17.137z M289.96,44.968
			c1.571,0,2.911,0.924,2.911,2.54c0,6.1-0.647,14.231-0.647,20.329c0,1.246-1.34,1.755-2.263,1.755
			c-1.202,0-2.263-0.509-2.263-1.755c0-6.1-0.6-14.231-0.6-20.329C287.096,45.893,288.343,44.968,289.96,44.968z M276.933,78.373
			c-2.634,0-4.436-1.479-4.851-3.373c-1.479,1.894-3.234,3.143-5.776,3.143c-2.819,0-5.776-1.571-5.776-5.313
			c0-4.343,3.927-5.683,9.287-5.683h1.479v-0.694c0-2.171-1.155-3.234-3.742-3.234c-2.819,0-3.696,1.247-4.528,1.247
			c-0.832,0-1.432-1.479-1.432-2.219c0-1.755,3.418-3.095,6.606-3.095c3.928,0,7.44,2.079,7.44,6.191v7.808
			c0.231,1.616,0.786,2.217,1.664,2.217c2.357,0,2.68-4.251,2.68-6.561c0-8.224-3.604-12.797-11.551-12.797
			c-9.195,0-11.92,6.191-11.92,13.213c0,6.561,2.402,12.382,10.533,12.382c3.743,0,5.13-1.202,6.146-1.202
			c0.969,0,1.479,1.155,1.479,1.755c0,1.987-5.36,2.864-8.317,2.864c-7.115,0-13.723-5.082-13.723-15.754
			c-0.001-9.331,5.035-16.676,15.801-16.676c9.703,0,15.339,5.821,15.339,15.292C283.771,73.567,281.692,78.373,276.933,78.373z
			 M290.007,79.204c-1.802,0-3.143-1.479-3.143-3.142c0-1.711,1.341-3.143,3.143-3.143c1.71,0,3.142,1.432,3.142,3.143
			C293.149,77.726,291.716,79.204,290.007,79.204z M323.686,58.599h-4.436l-1.063,5.683h3.604c0.878,0,1.802,0.969,1.802,2.217
			c0,1.341-0.924,2.263-1.755,2.263h-4.482l-1.341,7.392c-0.138,0.833-1.34,1.387-2.357,1.387c-1.293,0-2.957-0.74-2.957-2.219
			l1.155-6.561h-4.989l-1.34,7.392c-0.139,0.833-1.387,1.387-2.311,1.387c-1.293,0-2.911-0.74-2.911-2.219l1.109-6.561h-3.604
			c-1.017,0-1.664-0.878-1.664-2.171c0.002-1.293,0.696-2.309,1.666-2.309h4.482l1.016-5.683h-3.604c-1.062,0-1.71-0.832-1.71-2.172
			c0-1.294,0.647-2.263,1.664-2.263h4.527l1.247-6.931c0.185-0.785,1.34-1.247,2.496-1.247c1.385,0,2.725,0.647,2.725,2.264
			l-1.062,5.914h5.083l1.247-6.931c0.138-0.785,1.293-1.247,2.448-1.247c1.387,0,2.726,0.647,2.773,2.264l-1.108,5.914h3.603
			c0.878,0,1.756,0.924,1.756,2.217C325.397,57.674,324.564,58.599,323.686,58.599z"/>
	</g>
</g>
<g>
	<g>
		<path d="M270.372,69.731c-3.188,0-5.083,0.832-5.083,3.004c0,1.479,0.878,2.217,2.125,2.217c2.126,0,4.113-1.893,4.113-3.789
			v-1.432H270.372z"/>
	</g>
</g>
<g>
	<g>
		<path d="M260.497,320.624v119.472c0,6.236,5.055,11.291,11.291,11.291s11.291-5.055,11.291-11.291V320.624H260.497z"/>
	</g>
</g>
<g>
	<g>
		<path d="M414.64,320.624v119.472h-0.001c0,6.236,5.055,11.291,11.291,11.291s11.291-5.055,11.291-11.291V320.624H414.64z"/>
	</g>
</g>
<g>
	<g>
		<path d="M353.678,320.624v136.191c0,11.884,9.635,21.52,21.519,21.52s21.52-9.635,21.52-21.52V320.624H353.678z"/>
	</g>
</g>
<g>
	<g>
		<path d="M301.349,320.624v136.191c0,11.884,9.635,21.52,21.519,21.52c11.884,0,21.52-9.635,21.52-21.52V320.624H301.349z"/>
	</g>
</g>
<g>
	<g>
		<path d="M349.29,165.236c-20.527,0-37.165,16.64-37.165,37.166c0,11.939,6.524,22.556,16.016,29.356h8.62
			c6.638,0,12.833,1.888,18.088,5.148c5.254-3.26,11.45-5.148,18.088-5.148h0.765c8.006-6.799,12.755-17.416,12.755-29.356
			C386.456,181.876,369.817,165.236,349.29,165.236z"/>
	</g>
</g>
<g>
	<g>
		<path d="M501.124,282.498c-19.078,0-29.641,0-43.762,0c3.281-1.46,6.106-3.887,8.033-7.053c3.254-5.346,3.485-12.002,0.609-17.561
			c-16.914-32.7-7.108-13.742-24.435-47.24c-8.887-17.184-25.84-28.297-44.91-29.731c2.987,6.556,4.664,13.829,4.664,21.491
			c0,5.328-0.718,10.514-2.088,15.431c4.489,1.664,8.236,4.952,10.478,9.286l10.898,21.069h-47.675
			c-2.185,0-4.269,0.411-6.206,1.126c2.793,4.969,4.394,10.699,4.394,16.806c0,5.929-1.502,11.508-4.146,16.376h-22.932
			c6.27-2.794,10.647-9.069,10.647-16.376c0-9.904-8.029-17.933-17.933-17.933c-6.468,0-50.397,0-57.323,0
			c7.033-14.576,9.711-20.527,9.711-20.527c1.851-3.871,4.929-6.946,8.627-8.861c-0.872-4.845-2.058-9.413-1.54-14.183
			c-0.361-7.878,2.184-16,5.658-23.65c-19.294,1.702-36.658,13.569-45.1,31.218l-22.071,46.142
			c-2.682,5.556-2.318,12.103,0.963,17.328c1.924,3.064,4.695,5.415,7.901,6.841c-10.44,0-39.723,0-49.617,0
			c-6.006,0-10.875,4.869-10.875,10.875s4.869,10.875,10.875,10.875h11.706v173.919c0,9.218,7.473,16.69,16.69,16.69
			c9.218,0,16.691-7.473,16.691-16.69V304.248c8.061,0,200.79,0,217.961,0v173.919c0,9.218,7.473,16.69,16.69,16.69
			c9.218,0,16.691-7.473,16.691-16.69V304.248h10.724c6.006,0,10.875-4.869,10.875-10.875
			C511.995,287.367,507.13,282.498,501.124,282.498z"/>
	</g>
</g>
<g>
</g>
<g>
</g>
<g>
</g>
<g>
</g>
<g>
</g>
<g>
</g>
<g>
</g>
<g>
</g>
<g>
</g>
<g>
</g>
<g>
</g>
<g>
</g>
<g>
</g>
<g>
</g>
<g>
</g>
</svg>
