<?xml version="1.0"?>
<svg xmlns="http://www.w3.org/2000/svg" xmlns:xlink="http://www.w3.org/1999/xlink" viewBox="0 0 512 512" width="512" height="512"><defs><linearGradient id="linear-gradient" x1="53.23" y1="528.543" x2="484.544" y2="97.229" gradientUnits="userSpaceOnUse"><stop offset="0" stop-color="#ffb1b4"/><stop offset="0.033" stop-color="#f587a1"/><stop offset="1" stop-color="#f5b02e"/></linearGradient></defs><g id="gradient"><path d="M280,376H208a8,8,0,0,0-6.656,12.438l32,48A8,8,0,0,0,240,440h72a8,8,0,0,0,6.656-12.438l-32-48A8,8,0,0,0,280,376Zm-35.719,48-21.336-32h52.774l21.336,32ZM494.828,315.828,458.266,256H480a8,8,0,0,0,7.062-11.766L454.938,184H472a8,8,0,0,0,7.4-11.047l-56-136a8,8,0,0,0-14.8,0l-56,136A8,8,0,0,0,360,184h17.062l-32.124,60.234A8,8,0,0,0,352,256h21.734l-36.562,59.828A8,8,0,0,0,344,328h48V446.473L326.828,339.828A8,8,0,0,0,320,336H112a7.954,7.954,0,0,0-6.1,2.923,3.881,3.881,0,0,0-.725.9L53.752,424H24a8,8,0,0,0-8,8v56a8,8,0,0,0,8,8H488V480H440V328h48a8,8,0,0,0,6.828-12.172ZM104,480H51.476L104,446.575Zm16-107.564L185.733,480H120Zm-16,.009V424H72.506ZM32,440H84.531L32,473.426Zm172.484,40L126.266,352h189.25l78.218,128ZM424,480H412.489l-4.588-7.508c.011-.172.1-.317.1-.492V328h16ZM358.266,312l36.562-59.828A8,8,0,0,0,388,240H365.336l32.125-60.234A8,8,0,0,0,390.4,168H371.945L416,61.012,460.055,168H441.6a8,8,0,0,0-7.063,11.766L466.664,240H444a8,8,0,0,0-6.828,12.172L473.734,312ZM52,288h56a35.929,35.929,0,0,0,11.555-69.973,40,40,0,0,0-79.11,0A35.929,35.929,0,0,0,52,288Zm-2.828-55.684a8,8,0,0,0,6.867-7.918c0-.21-.016-.48-.039-.746a24,24,0,0,1,48,0c-.023.266-.039.536-.039.75a8,8,0,0,0,6.867,7.918A19.938,19.938,0,0,1,108,272H52a19.938,19.938,0,0,1-2.828-39.684ZM184,160a40.159,40.159,0,0,0,8.307-.967A35.924,35.924,0,0,0,228,192h72a35.974,35.974,0,0,0,19.523-66.207A35.689,35.689,0,0,0,320,120a39.964,39.964,0,0,0-74.641-19.9,35.8,35.8,0,0,0-22.629,10.384A39.947,39.947,0,1,0,184,160Zm44.734-29a19.948,19.948,0,0,1,19.485-14.945h.125l1.32.148a8.012,8.012,0,0,0,8.078-5.023,23.893,23.893,0,0,1,44.914,16.308,8,8,0,0,0,4.656,9.953A19.966,19.966,0,0,1,300,176H228a19.944,19.944,0,0,1-5-39.266A7.983,7.983,0,0,0,228.734,131ZM184,96a24.027,24.027,0,0,1,24,24,22.528,22.528,0,0,1-1.272,7.154A35.917,35.917,0,0,0,195.3,141.112,23.7,23.7,0,0,1,184,144a24,24,0,0,1,0-48Zm-8-40V40a8,8,0,0,1,16,0V56a8,8,0,0,1-16,0ZM121.773,69.086a8,8,0,0,1,11.313-11.313L144.4,69.09A8,8,0,1,1,133.086,80.4ZM96,120a8,8,0,0,1,8-8h16a8,8,0,0,1,0,16H104A8,8,0,0,1,96,120Zm48.4,39.6a8,8,0,0,1,0,11.312l-11.312,11.317a8,8,0,0,1-11.313-11.313L133.086,159.6A8,8,0,0,1,144.4,159.6ZM184,176a8,8,0,0,1,8,8v16a8,8,0,0,1-16,0V184A8,8,0,0,1,184,176Zm39.6-95.6a8,8,0,0,1,0-11.312l11.312-11.317a8,8,0,0,1,11.313,11.313L234.914,80.4a8,8,0,0,1-11.312,0Z" style="fill:url(#linear-gradient)"/></g></svg>
