<svg id="Layer_35" enable-background="new 0 0 64 64" height="512" viewBox="0 0 64 64" width="512" xmlns="http://www.w3.org/2000/svg"><path d="m49.5 26c-.69 0-1.32.28-1.77.73s-.73 1.08-.73 1.77v10.63c0 1.05-.82 1.92-1.87 1.99l-7.25.49-1.88 9.39-2-2-2-2-4 4-1.8-9h-.85c-3.34 0-6.46 1.67-8.32 4.45l-6.64 9.97c-.26.38-.39.82-.39 1.28 0 .64.26 1.21.67 1.63.42.41.99.67 1.63.67h.47c.77 0 1.49-.38 1.91-1.03l7.32-10.97h1v14h9 9v-15l6.07-1.1c2.86-.52 4.93-3.01 4.93-5.91v-11.49c0-1.38-1.12-2.5-2.5-2.5z" fill="#b4dd7f"/><path d="m37.88 41.61-1.88 9.39-2-2-2-2 3.75-5.25z" fill="#e6e9ed"/><path d="m28.43 42 3.57 5-4 4-1.8-9z" fill="#e6e9ed"/><g fill="#f0d0b4"><path d="m33.27 41.91 2.48-.16-3.75 5.25-3.57-5h3.57c.43 0 .86-.03 1.27-.09z"/><path d="m52 2c5.52 0 10 4.48 10 10s-4.48 10-10 10-10-4.48-10-10 4.48-10 10-10z"/><path d="m12 2c5.52 0 10 4.48 10 10s-4.48 10-10 10-10-4.48-10-10 4.48-10 10-10z"/><path d="m42 32c0 5.09-3.81 9.29-8.73 9.91l-1.27.09c-5.52 0-10-4.48-10-10s4.48-10 10-10 10 4.48 10 10z"/></g><path d="m52 1c-6.065 0-11 4.935-11 11s4.935 11 11 11 11-4.935 11-11-4.935-11-11-11zm0 20c-4.963 0-9-4.038-9-9s4.037-9 9-9 9 4.038 9 9-4.037 9-9 9z"/><circle cx="49" cy="8" r="1"/><circle cx="55" cy="8" r="1"/><path d="m55.711 14.384c-.383.49-.489.576-.714.576-.224 0-.33-.086-.713-.576-.419-.536-1.051-1.344-2.289-1.344-1.237 0-1.869.809-2.287 1.345-.382.489-.488.575-.711.575s-.329-.086-.711-.576c-.418-.535-1.049-1.344-2.286-1.344v2c.222 0 .328.086.71.575.418.535 1.05 1.345 2.287 1.345s1.869-.809 2.287-1.345c.382-.489.488-.575.711-.575.224 0 .33.086.713.576.419.536 1.051 1.344 2.289 1.344s1.871-.809 2.29-1.344c.383-.49.489-.576.713-.576v-2c-1.238 0-1.87.809-2.289 1.344z"/><path d="m32 33c2.206 0 4 1.794 4 4h2c0-3.309-2.691-6-6-6s-6 2.691-6 6h2c0-2.206 1.794-4 4-4z"/><circle cx="29" cy="28" r="1"/><circle cx="35" cy="28" r="1"/><path d="m23 12c0-6.065-4.935-11-11-11s-11 4.935-11 11 4.935 11 11 11 11-4.935 11-11zm-20 0c0-4.962 4.037-9 9-9s9 4.038 9 9-4.037 9-9 9-9-4.038-9-9z"/><circle cx="9" cy="8" r="1"/><circle cx="15" cy="8" r="1"/><path d="m6 14h12v2h-12z"/><path d="m49.5 25c-1.93 0-3.5 1.57-3.5 3.5v10.628c0 .524-.41.963-.934.998l-6.142.409c2.484-2.017 4.076-5.092 4.076-8.535 0-6.065-4.935-11-11-11s-11 4.935-11 11c0 3.72 1.861 7.008 4.695 9h-.344c-3.687 0-7.108 1.831-9.152 4.898l-6.645 9.967c-.363.545-.554 1.179-.554 1.832 0 1.822 1.481 3.303 3.303 3.303h.465c1.107 0 2.135-.55 2.748-1.471l6.484-9.726v13.197h20v-15.166l5.252-.955c3.331-.605 5.748-3.502 5.748-6.886v-11.493c0-1.93-1.57-3.5-3.5-3.5zm-17.5 20.28-1.628-2.28h1.628c.451 0 .892-.035 1.329-.088l.381-.025zm-4.086-2.28 2.78 3.892-2.08 2.08-1.194-5.972zm8.375-.285.352-.023-1.256 6.28-2.08-2.08zm-13.289-10.715c0-4.962 4.037-9 9-9s9 4.038 9 9c0 4.584-3.448 8.372-7.886 8.924l-1.133.076c-4.954-.011-8.981-4.044-8.981-9zm28 7.993c0 2.417-1.727 4.487-4.105 4.919l-6.895 1.254v14.834h-7v-2h-2v2h-7v-14h-2.535l-7.613 11.42c-.243.363-.648.58-1.084.58h-.465c-.719 0-1.303-.584-1.303-1.303 0-.258.076-.508.219-.723l6.645-9.967c1.672-2.509 4.471-4.007 7.488-4.007h.029l2.005 10.028 4.614-4.614 4.614 4.615 2.094-10.475 6.491-.432c1.571-.105 2.801-1.42 2.801-2.993v-10.629c0-.827.673-1.5 1.5-1.5s1.5.673 1.5 1.5z"/><path d="m31 51h2v2h-2z"/><path d="m31 55h2v2h-2z"/></svg>