<svg height="512pt" viewBox="-67 0 512 512" width="512pt" xmlns="http://www.w3.org/2000/svg"><path d="m259.539062 173.824219h-141.050781c-8.386719 0-15.183593 6.796875-15.183593 15.183593v307.808594c0 5.554688 3.035156 10.667969 7.910156 13.328125 4.878906 2.660157 10.820312 2.445313 15.492187-.5625l62.300781-40.125 62.308594 40.125c2.496094 1.605469 5.355469 2.417969 8.222656 2.417969 2.496094 0 4.996094-.617188 7.269532-1.855469 4.875-2.660156 7.910156-7.773437 7.910156-13.328125v-307.808594c0-8.386718-6.796875-15.183593-15.179688-15.183593zm0 0" fill="#ff583e"/><path d="m259.539062 173.824219h-70.535156v295.636719l.003906-.003907 62.308594 40.125c2.496094 1.605469 5.355469 2.417969 8.222656 2.417969 2.496094 0 4.996094-.617188 7.269532-1.855469 4.878906-2.660156 7.910156-7.769531 7.910156-13.328125v-307.808594c0-8.386718-6.796875-15.183593-15.179688-15.183593zm0 0" fill="#d1093a"/><path d="m378.015625 189.007812c0-14.8125-5.550781-28.949218-15.628906-39.800781-3.144531-3.386719-4.355469-7.914062-3.328125-12.421875 3.304687-14.4375 1.042968-29.453125-6.363282-42.28125-7.410156-12.828125-19.28125-22.296875-33.4375-26.652344-4.417968-1.363281-7.730468-4.675781-9.089843-9.09375-4.359375-14.152343-13.824219-26.027343-26.65625-33.433593-12.828125-7.40625-27.847657-9.667969-42.28125-6.367188-4.507813 1.03125-9.035157-.183593-12.421875-3.328125-10.851563-10.078125-24.984375-15.628906-39.800782-15.628906-14.8125 0-28.949218 5.550781-39.800781 15.628906-3.386719 3.144532-7.914062 4.359375-12.417969 3.328125-14.4375-3.304687-29.453124-1.042969-42.285156 6.367188-12.828125 7.40625-22.296875 19.277343-26.652344 33.433593-1.363281 4.417969-4.675781 7.730469-9.09375 9.09375-14.15625 4.355469-26.027343 13.824219-33.4375 26.652344-7.40625 12.828125-9.667968 27.847656-6.363281 42.28125 1.03125 4.507813-.183593 9.035156-3.328125 12.421875-10.078125 10.851563-15.628906 24.988281-15.628906 39.800781s5.550781 28.949219 15.628906 39.800782c3.144532 3.386718 4.355469 7.914062 3.328125 12.421875-3.304687 14.433593-1.042969 29.453125 6.367188 42.28125 7.40625 12.828125 19.277343 22.296875 33.433593 26.65625 4.417969 1.359375 7.730469 4.671875 9.09375 9.089843 4.355469 14.15625 13.824219 26.027344 26.652344 33.4375 12.832032 7.40625 27.847656 9.664063 42.28125 6.363282 4.507813-1.03125 9.035156.183594 12.421875 3.328125 10.851563 10.078125 24.988281 15.628906 39.800781 15.628906s28.949219-5.550781 39.800782-15.628906c3.386718-3.144531 7.914062-4.359375 12.417968-3.328125 14.4375 3.304687 29.453126 1.042968 42.285157-6.363282 12.828125-7.410156 22.296875-19.28125 26.65625-33.4375 1.359375-4.417968 4.671875-7.730468 9.089843-9.089843 14.152344-4.359375 26.027344-13.828125 33.4375-26.65625 7.40625-12.828125 9.667969-27.847657 6.363282-42.28125-1.03125-4.507813.183594-9.035157 3.328125-12.421875 10.078125-10.851563 15.628906-24.988282 15.628906-39.800782zm0 0" fill="#fff566"/><path d="m359.058594 136.785156c3.304687-14.4375 1.042968-29.453125-6.363282-42.28125-7.410156-12.828125-19.28125-22.296875-33.4375-26.652344-4.417968-1.363281-7.730468-4.675781-9.089843-9.09375-4.359375-14.152343-13.824219-26.027343-26.65625-33.433593-12.828125-7.40625-27.847657-9.667969-42.28125-6.367188-4.507813 1.03125-9.035157-.183593-12.421875-3.328125-10.851563-10.078125-24.984375-15.628906-39.800782-15.628906 0 0 0 0-.003906 0v378.015625h.003906c14.816407 0 28.949219-5.550781 39.800782-15.628906 3.386718-3.144531 7.914062-4.359375 12.421875-3.328125 14.4375 3.304687 29.453125 1.042968 42.28125-6.363282 12.832031-7.410156 22.296875-19.28125 26.65625-33.4375 1.359375-4.417968 4.675781-7.730468 9.089843-9.089843 14.15625-4.359375 26.03125-13.828125 33.4375-26.65625s9.667969-27.847657 6.367188-42.28125c-1.03125-4.507813.179688-9.035157 3.328125-12.421875 10.078125-10.851563 15.625-24.988282 15.625-39.800782s-5.546875-28.949218-15.625-39.800781c-3.148437-3.386719-4.359375-7.914062-3.332031-12.421875zm0 0" fill="#ffda45"/><path d="m189.007812 312.167969c-67.910156 0-123.15625-55.25-123.15625-123.160157 0-67.910156 55.246094-123.160156 123.15625-123.160156 67.910157 0 123.160157 55.25 123.160157 123.160156 0 67.910157-55.25 123.160157-123.160157 123.160157zm0 0" fill="#ffda45"/><path d="m189.007812 65.847656s0 0-.003906 0v246.320313h.003906c67.910157 0 123.160157-55.25 123.160157-123.160157 0-67.910156-55.25-123.160156-123.160157-123.160156zm0 0" fill="#ffa426"/><path d="m211.09375 249.957031c-2.949219 0-5.925781-.441406-8.84375-1.332031l-13.242188-4.050781-13.242187 4.050781c-9.085937 2.777344-18.707031 1.167969-26.394531-4.417969-7.6875-5.582031-12.191406-14.234375-12.355469-23.738281l-.242187-13.84375-7.941407-11.339844c-5.453125-7.785156-6.894531-17.433594-3.957031-26.46875 2.9375-9.039062 9.773438-15.996094 18.757812-19.089844l13.09375-4.503906 8.332032-11.058594c5.71875-7.589843 14.445312-11.941406 23.949218-11.941406 9.503907 0 18.230469 4.351563 23.949219 11.941406l8.332031 11.058594 13.09375 4.503906c8.984376 3.09375 15.820313 10.050782 18.757813 19.089844 2.933594 9.035156 1.492187 18.683594-3.957031 26.46875l-7.941406 11.339844-.242188 13.847656c-.164062 9.5-4.667969 18.152344-12.355469 23.738282-5.214843 3.785156-11.324219 5.746093-17.550781 5.746093zm0 0" fill="#fff566"/><path d="m234.382812 149.726562-13.09375-4.507812-8.332031-11.058594c-5.71875-7.585937-14.445312-11.941406-23.949219-11.941406h-.003906v122.355469h.003906l13.242188 4.050781c2.917969.890625 5.894531 1.332031 8.84375 1.332031 6.226562 0 12.332031-1.960937 17.550781-5.75 7.6875-5.585937 12.1875-14.238281 12.355469-23.738281l.242188-13.84375 7.941406-11.34375c5.449218-7.785156 6.890625-17.429688 3.953125-26.46875-2.933594-9.035156-9.769531-15.992188-18.753907-19.085938zm0 0" fill="#ffda45"/></svg>