<?xml version="1.0"?>
<svg xmlns="http://www.w3.org/2000/svg" viewBox="0 0 64 64" width="512" height="512"><g id="Setting-2" data-name="Setting"><circle cx="16" cy="16" r="14" style="fill:#1e81ce"/><path d="M27,18V14H23.738a7.968,7.968,0,0,0-.852-2.058l2.306-2.306L22.364,6.808,20.058,9.114A7.968,7.968,0,0,0,18,8.262V5H14V8.262a7.968,7.968,0,0,0-2.058.852L9.636,6.808,6.808,9.636l2.306,2.306A7.968,7.968,0,0,0,8.262,14H5v4H8.262a7.968,7.968,0,0,0,.852,2.058L6.808,22.364l2.828,2.828,2.306-2.306A7.968,7.968,0,0,0,14,23.738V27h4V23.738a7.968,7.968,0,0,0,2.058-.852l2.306,2.306,2.828-2.828-2.306-2.306A7.968,7.968,0,0,0,23.738,18Z" style="fill:#57565c"/><circle cx="16" cy="16" r="2" style="fill:#e0e0e2"/><circle cx="48" cy="16" r="14" style="fill:#e0e0e2"/><circle cx="48" cy="16" r="11" style="fill:#e0e0e2"/><circle cx="48" cy="16" r="11" style="fill:#ffde17"/><circle cx="48" cy="16" r="2" style="fill:#e0e0e2"/><circle cx="16" cy="48" r="14" style="fill:#e0e0e2"/><circle cx="16" cy="48" r="2" style="fill:#e0e0e2"/><circle cx="48" cy="48" r="14" style="fill:#1e81ce"/><path d="M59,50V46H55.738a7.968,7.968,0,0,0-.852-2.058l2.306-2.306-2.828-2.828-2.306,2.306A7.968,7.968,0,0,0,50,40.262V37H46v3.262a7.968,7.968,0,0,0-2.058.852l-2.306-2.306-2.828,2.828,2.306,2.306A7.968,7.968,0,0,0,40.262,46H37v4h3.262a7.968,7.968,0,0,0,.852,2.058l-2.306,2.306,2.828,2.828,2.306-2.306A7.968,7.968,0,0,0,46,55.738V59h4V55.738a7.968,7.968,0,0,0,2.058-.852l2.306,2.306,2.828-2.828-2.306-2.306A7.968,7.968,0,0,0,55.738,50Z" style="fill:#57565c"/><circle cx="48" cy="48" r="2" style="fill:#e0e0e2"/><circle cx="32" cy="32" r="5" style="fill:#e0e0e2"/><circle cx="32" cy="32" r="2" style="fill:#898890"/><circle cx="16" cy="48" r="11" style="fill:#ffde17"/><path d="M16,31A15,15,0,1,0,1,16,15.017,15.017,0,0,0,16,31ZM16,3A13,13,0,1,1,3,16,13.015,13.015,0,0,1,16,3Z"/><path d="M10.343,25.9l1.784-1.783a9.266,9.266,0,0,0,.873.362V27a1,1,0,0,0,1,1h4a1,1,0,0,0,1-1V24.478a9.266,9.266,0,0,0,.873-.362L21.657,25.9a1,1,0,0,0,1.414,0L25.9,23.071a1,1,0,0,0,0-1.414l-1.784-1.784A9.12,9.12,0,0,0,24.478,19H27a1,1,0,0,0,1-1V14a1,1,0,0,0-1-1H24.478a9.12,9.12,0,0,0-.363-.873L25.9,10.343a1,1,0,0,0,0-1.414L23.071,6.1a1,1,0,0,0-1.414,0L19.873,7.884A9.266,9.266,0,0,0,19,7.522V5a1,1,0,0,0-1-1H14a1,1,0,0,0-1,1V7.522a9.266,9.266,0,0,0-.873.362L10.343,6.1a1,1,0,0,0-1.414,0L6.1,8.929a1,1,0,0,0,0,1.414l1.784,1.784A9.12,9.12,0,0,0,7.522,13H5a1,1,0,0,0-1,1v4a1,1,0,0,0,1,1H7.522a9.12,9.12,0,0,0,.363.873L6.1,21.657a1,1,0,0,0,0,1.414L8.929,25.9A1,1,0,0,0,10.343,25.9Zm-.367-6.35a7,7,0,0,1-.747-1.8A1,1,0,0,0,8.262,17H6V15H8.262a1,1,0,0,0,.967-.75,7,7,0,0,1,.747-1.8,1,1,0,0,0-.155-1.216l-1.6-1.6L9.636,8.222l1.6,1.6a1,1,0,0,0,1.216.154,7,7,0,0,1,1.8-.745A1,1,0,0,0,15,8.262V6h2V8.262a1,1,0,0,0,.75.968,7,7,0,0,1,1.8.745,1,1,0,0,0,1.216-.154l1.6-1.6,1.414,1.414-1.6,1.6a1,1,0,0,0-.155,1.216,7,7,0,0,1,.747,1.8,1,1,0,0,0,.967.75H26v2H23.738a1,1,0,0,0-.967.75,7,7,0,0,1-.747,1.8,1,1,0,0,0,.155,1.216l1.6,1.6-1.414,1.414-1.6-1.6a1,1,0,0,0-1.216-.154,7,7,0,0,1-1.8.745,1,1,0,0,0-.75.968V26H15V23.738a1,1,0,0,0-.75-.968,7,7,0,0,1-1.8-.745,1,1,0,0,0-1.216.154l-1.6,1.6L8.222,22.364l1.6-1.6A1,1,0,0,0,9.976,19.549Z"/><path d="M16,19a3,3,0,1,0-3-3A3,3,0,0,0,16,19Zm0-4a1,1,0,1,1-1,1A1,1,0,0,1,16,15Z"/><path d="M48,31A15,15,0,1,0,33,16,15.017,15.017,0,0,0,48,31ZM48,3A13,13,0,1,1,35,16,13.015,13.015,0,0,1,48,3Z"/><path d="M41.123,25.834a.988.988,0,0,0,.572.182A1,1,0,0,0,42.27,24.2a10.017,10.017,0,0,1-2.541-2.575,1,1,0,1,0-1.653,1.126A11.967,11.967,0,0,0,41.123,25.834Z"/><path d="M55.471,22.647a10,10,0,0,1-2.852,2.224,1,1,0,0,0,.926,1.774,12.023,12.023,0,0,0,3.42-2.668,1,1,0,0,0-1.494-1.33Z"/><path d="M37.835,11.669a1,1,0,0,0,1.354-.405,10.025,10.025,0,0,1,2.264-2.823,1,1,0,1,0-1.31-1.511,11.971,11.971,0,0,0-2.713,3.384A1,1,0,0,0,37.835,11.669Z"/><path d="M44.224,6.667a1.007,1.007,0,0,0,.343-.062A9.968,9.968,0,0,1,48,6h.135a1.025,1.025,0,0,0,1.008-.99A1,1,0,0,0,48.151,4H48a11.954,11.954,0,0,0-4.12.727,1,1,0,0,0,.344,1.94Z"/><path d="M49.166,25.933a10.158,10.158,0,0,1-3.609-.233,1,1,0,1,0-.487,1.939,12.071,12.071,0,0,0,4.326.28,1,1,0,0,0-.23-1.986Z"/><path d="M38.271,18.317a10.083,10.083,0,0,1-.188-3.613,1,1,0,1,0-1.982-.258A11.85,11.85,0,0,0,36,16a12.171,12.171,0,0,0,.323,2.776,1,1,0,0,0,.973.77,1.025,1.025,0,0,0,.231-.027A1,1,0,0,0,38.271,18.317Z"/><path d="M57.946,14.964a1,1,0,0,0,.2.509A1,1,0,0,0,58,16a9.967,9.967,0,0,1-.651,3.557,1,1,0,0,0,.579,1.29.986.986,0,0,0,.355.066,1,1,0,0,0,.935-.644A11.959,11.959,0,0,0,60,16a.994.994,0,0,0-.209-.611,1,1,0,0,0,.146-.631A11.94,11.94,0,0,0,58.716,10.6a1,1,0,1,0-1.785.9A9.938,9.938,0,0,1,57.946,14.964Z"/><path d="M51.679,6.7a9.963,9.963,0,0,1,3.065,1.918,1,1,0,0,0,1.35-1.476,11.966,11.966,0,0,0-3.679-2.3,1,1,0,1,0-.736,1.86Z"/><path d="M45,16a3,3,0,1,0,3-3A3,3,0,0,0,45,16Zm4,0a1,1,0,1,1-1-1A1,1,0,0,1,49,16Z"/><path d="M16,33A15,15,0,1,0,31,48,15.017,15.017,0,0,0,16,33Zm0,28A13,13,0,1,1,29,48,13.015,13.015,0,0,1,16,61Z"/><path d="M16,45a3,3,0,1,0,3,3A3,3,0,0,0,16,45Zm0,4a1,1,0,1,1,1-1A1,1,0,0,1,16,49Z"/><path d="M48,33A15,15,0,1,0,63,48,15.017,15.017,0,0,0,48,33Zm0,28A13,13,0,1,1,61,48,13.015,13.015,0,0,1,48,61Z"/><path d="M53.657,38.1l-1.784,1.783A9.266,9.266,0,0,0,51,39.522V37a1,1,0,0,0-1-1H46a1,1,0,0,0-1,1v2.522a9.266,9.266,0,0,0-.873.362L42.343,38.1a1,1,0,0,0-1.414,0L38.1,40.929a1,1,0,0,0,0,1.414l1.784,1.784a9.12,9.12,0,0,0-.363.873H37a1,1,0,0,0-1,1v4a1,1,0,0,0,1,1h2.522a9.12,9.12,0,0,0,.363.873L38.1,53.657a1,1,0,0,0,0,1.414L40.929,57.9a1,1,0,0,0,1.414,0l1.784-1.783a9.266,9.266,0,0,0,.873.362V59a1,1,0,0,0,1,1h4a1,1,0,0,0,1-1V56.478a9.266,9.266,0,0,0,.873-.362L53.657,57.9a1,1,0,0,0,1.414,0L57.9,55.071a1,1,0,0,0,0-1.414l-1.784-1.784A9.12,9.12,0,0,0,56.478,51H59a1,1,0,0,0,1-1V46a1,1,0,0,0-1-1H56.478a9.12,9.12,0,0,0-.363-.873L57.9,42.343a1,1,0,0,0,0-1.414L55.071,38.1A1,1,0,0,0,53.657,38.1Zm.367,6.35a7,7,0,0,1,.747,1.8,1,1,0,0,0,.967.75H58v2H55.738a1,1,0,0,0-.967.75,7,7,0,0,1-.747,1.8,1,1,0,0,0,.155,1.216l1.6,1.6-1.414,1.414-1.6-1.6a1,1,0,0,0-1.216-.154,7,7,0,0,1-1.8.745,1,1,0,0,0-.75.968V58H47V55.738a1,1,0,0,0-.75-.968,7,7,0,0,1-1.8-.745,1,1,0,0,0-1.216.154l-1.6,1.6-1.414-1.414,1.6-1.6a1,1,0,0,0,.155-1.216,7,7,0,0,1-.747-1.8,1,1,0,0,0-.967-.75H38V47h2.262a1,1,0,0,0,.967-.75,7,7,0,0,1,.747-1.8,1,1,0,0,0-.155-1.216l-1.6-1.6,1.414-1.414,1.6,1.6a1,1,0,0,0,1.216.154,7,7,0,0,1,1.8-.745,1,1,0,0,0,.75-.968V38h2v2.262a1,1,0,0,0,.75.968,7,7,0,0,1,1.8.745,1,1,0,0,0,1.216-.154l1.6-1.6,1.414,1.414-1.6,1.6A1,1,0,0,0,54.024,44.451Z"/><path d="M48,45a3,3,0,1,0,3,3A3,3,0,0,0,48,45Zm0,4a1,1,0,1,1,1-1A1,1,0,0,1,48,49Z"/><path d="M38,32a6,6,0,1,0-6,6A6.006,6.006,0,0,0,38,32Zm-6,4a4,4,0,1,1,4-4A4,4,0,0,1,32,36Z"/><path d="M32,29a3,3,0,1,0,3,3A3,3,0,0,0,32,29Zm0,4a1,1,0,1,1,1-1A1,1,0,0,1,32,33Z"/><path d="M17.166,57.933a10.159,10.159,0,0,1-3.609-.233,1,1,0,1,0-.487,1.939,12.071,12.071,0,0,0,4.326.28,1,1,0,1,0-.23-1.986Z"/><path d="M23.471,54.647a10,10,0,0,1-2.852,2.224,1,1,0,0,0,.926,1.774,12.023,12.023,0,0,0,3.42-2.668,1,1,0,1,0-1.494-1.33Z"/><path d="M23.419,40.878a1,1,0,0,0,.675-1.738,11.966,11.966,0,0,0-3.679-2.3,1,1,0,1,0-.736,1.86,9.963,9.963,0,0,1,3.065,1.918A1,1,0,0,0,23.419,40.878Z"/><path d="M24.931,43.5a9.938,9.938,0,0,1,1.015,3.468,1,1,0,0,0,.2.509A1,1,0,0,0,26,48a9.967,9.967,0,0,1-.651,3.557,1,1,0,0,0,.579,1.29.986.986,0,0,0,.355.066,1,1,0,0,0,.935-.644A11.959,11.959,0,0,0,28,48a.994.994,0,0,0-.209-.611,1,1,0,0,0,.146-.631A11.94,11.94,0,0,0,26.716,42.6a1,1,0,1,0-1.785.9Z"/><path d="M5.835,43.669a1,1,0,0,0,1.354-.4,10.025,10.025,0,0,1,2.264-2.823,1,1,0,1,0-1.31-1.511A11.971,11.971,0,0,0,5.43,42.314,1,1,0,0,0,5.835,43.669Z"/><path d="M6.271,50.317A10.083,10.083,0,0,1,6.083,46.7,1,1,0,1,0,4.1,46.446,11.85,11.85,0,0,0,4,48a12.171,12.171,0,0,0,.323,2.776,1,1,0,0,0,.973.77,1.025,1.025,0,0,0,.231-.027A1,1,0,0,0,6.271,50.317Z"/><path d="M7.729,53.622a1,1,0,1,0-1.653,1.126,11.967,11.967,0,0,0,3.047,3.086.988.988,0,0,0,.572.182A1,1,0,0,0,10.27,56.2,10.017,10.017,0,0,1,7.729,53.622Z"/><path d="M16,38h.145a1,1,0,0,0,.006-2H16a11.954,11.954,0,0,0-4.12.727,1,1,0,1,0,.687,1.878A9.968,9.968,0,0,1,16,38Z"/></g></svg>
