<svg height="512pt" viewBox="-84 0 512 512" width="512pt" xmlns="http://www.w3.org/2000/svg"><path d="m329.847656 64c-27.148437 0-49.230468-22.085938-49.230468-49.230469 0-8.15625-6.613282-14.769531-14.769532-14.769531h-187.078125c-8.15625 0-14.769531 6.613281-14.769531 14.769531 0 27.144531-22.085938 49.230469-49.230469 49.230469-8.15625 0-14.769531 6.613281-14.769531 14.769531v102.011719c0 62.113281 14.390625 124.449219 41.621094 180.273438 27.230468 55.828124 67.492187 105.546874 116.4375 143.789062l5.15625 4.023438c2.671875 2.089843 5.882812 3.132812 9.09375 3.132812 3.207031 0 6.417968-1.042969 9.089844-3.132812l5.15625-4.023438c48.945312-38.242188 89.207031-87.960938 116.4375-143.789062 27.230468-55.824219 41.625-118.160157 41.625-180.273438v-102.011719c0-8.15625-6.613282-14.769531-14.769532-14.769531zm0 0" fill="#ff3c7d"/><path d="m287.058594 103.4375c-19.925782-9.660156-36.222656-25.953125-45.882813-45.878906-2.46875-5.09375-7.628906-8.328125-13.289062-8.328125h-111.160157c-5.65625 0-10.820312 3.234375-13.289062 8.328125-9.660156 19.925781-25.953125 36.21875-45.878906 45.878906-5.09375 2.46875-8.328125 7.632812-8.328125 13.289062v64.054688c0 54.675781 12.667969 109.550781 36.636719 158.695312 18.984374 38.921876 44.644531 73.890626 76.265624 103.941407 2.851563 2.710937 6.511719 4.0625 10.175782 4.0625 3.660156 0 7.320312-1.351563 10.171875-4.0625 31.621093-30.050781 57.28125-65.019531 76.261719-103.941407 23.972656-49.144531 36.640624-104.019531 36.640624-158.695312v-64.054688c0-5.65625-3.230468-10.820312-8.324218-13.289062zm0 0" fill="#ffa000"/><path d="m329.847656 64c-27.148437 0-49.230468-22.085938-49.230468-49.230469 0-8.15625-6.613282-14.769531-14.769532-14.769531h-93.046875v511.980469c3.042969-.101563 6.0625-1.128907 8.597657-3.113281l5.15625-4.023438c48.945312-38.242188 89.210937-87.960938 116.4375-143.789062 27.230468-55.824219 41.625-118.160157 41.625-180.273438v-102.011719c0-8.15625-6.613282-14.769531-14.769532-14.769531zm0 0" fill="#d10050"/><path d="m287.058594 103.4375c-19.925782-9.660156-36.222656-25.953125-45.882813-45.878906-2.46875-5.09375-7.628906-8.328125-13.289062-8.328125h-55.085938v398.230469c3.496094-.117188 6.957031-1.457032 9.679688-4.042969 31.625-30.050781 57.28125-65.019531 76.265625-103.941407 23.96875-49.144531 36.636718-104.019531 36.636718-158.695312v-64.054688c0-5.65625-3.230468-10.820312-8.324218-13.289062zm0 0" fill="#ee8700"/><path d="m162.460938 251.078125c-3.902344 0-7.664063-1.546875-10.441407-4.328125l-39.386719-39.382812c-5.765624-5.769532-5.765624-15.121094 0-20.886719 5.769532-5.769531 15.121094-5.769531 20.886719 0l27.34375 27.34375 48.859375-65.148438c4.894532-6.523437 14.152344-7.847656 20.675782-2.953125 6.527343 4.894532 7.851562 14.152344 2.957031 20.675782l-59.078125 78.769531c-2.570313 3.425781-6.496094 5.566406-10.769532 5.871093-.347656.023438-.699218.039063-1.046874.039063zm0 0" fill="#fdd835"/><path d="m230.398438 145.722656c-6.523438-4.894531-15.78125-3.570312-20.675782 2.953125l-36.921875 49.230469v48.921875c.523438-.519531 1.027344-1.0625 1.476563-1.660156l59.078125-78.769531c4.894531-6.523438 3.570312-15.78125-2.957031-20.675782zm0 0" fill="#fbc02d"/></svg>